<svg width="1200" height="900" viewBox="0 0 1200 900" fill="none" xmlns="http://www.w3.org/2000/svg">
  <rect width="1200" height="900" fill="#F8FAFC"/>
  <g opacity="0.95">
    <rect width="1200" height="900" fill="#F8FAFC"/>
    <g fill="#E2E8F0">
      <rect x="0" y="0" width="150" height="150"/>
      <rect x="300" y="0" width="150" height="150"/>
      <rect x="600" y="0" width="150" height="150"/>
      <rect x="900" y="0" width="150" height="150"/>
      <rect x="150" y="150" width="150" height="150"/>
      <rect x="450" y="150" width="150" height="150"/>
      <rect x="750" y="150" width="150" height="150"/>
      <rect x="1050" y="150" width="150" height="150"/>
    </g>
    <g fill="#F1F5F9">
      <rect x="150" y="0" width="150" height="150"/>
      <rect x="450" y="0" width="150" height="150"/>
      <rect x="750" y="0" width="150" height="150"/>
      <rect x="1050" y="0" width="150" height="150"/>
      <rect x="0" y="150" width="150" height="150"/>
      <rect x="300" y="150" width="150" height="150"/>
      <rect x="600" y="150" width="150" height="150"/>
      <rect x="900" y="150" width="150" height="150"/>
    </g>
  </g>
</svg>
